<?xml version="1.0" encoding="utf-8"?>
<!-- Generator: Adobe Illustrator 19.1.0, SVG Export Plug-In . SVG Version: 6.00 Build 0)  -->
<svg version="1.1" id="Layer_1" xmlns="http://www.w3.org/2000/svg" xmlns:xlink="http://www.w3.org/1999/xlink" x="0px" y="0px"
	 viewBox="0 0 2296.1 1020.5" style="enable-background:new 0 0 2296.1 1020.5;" xml:space="preserve">
<style type="text/css">
	.st0{fill:#000000;}
</style>
<g>
	<path class="st0" d="M374.5,349.5c-17.7-7.1-29.8-11.9-46.6-15.3c-16.8-3.4-41.8-1.2-55.1-1.2s-16.2-3.7-16.7-19.2
		c-4.3-41.1,46.3-94.7,69.3-114.8c22-19.2,114.8-104.5,139.6-128.5s32.2-44,25.5-56.8s-36.3-16-54.5-12.2
		c-48.3,10-64.9,13.3-85.1,21.8c-29.8,12.6-45.6,25-72.1,43.9c-15.2,10.8-21.8,24.5-24,28.8c-2.2,4.2-5.5,17.8-5.5,22.2
		s5,7.5,10.7,8.8c5.8,1.3,12-1.8,15.2-5.2s-2-8.5-2.8-11.5s4.2-14.2,8.2-19.8s18.5-14.5,26.8-20.8s12.2-8.5,14.8-7
		s-24.8,50.8-37.8,72.5s-61,90-69.5,102.2s-40.9,57.2-50.1,68c-9.2,10.8-38.3,50.8-44.5,58.2c-6.2,7.3-31,50.9-32.3,52
		c-1.2,0.9-3.4,1-4.4,2.1c-1.4,1.4-4.6,12.5-5.3,15.5s-3.2,8.1-2.3,10.7c0.4,1.4,4.4,1.9,7.9,1.9s3.9-1.9,6.9-4.5s3.6-1.4,7.1-1.9
		s21.8-35.4,32.3-52.4s39-53,69.5-92.5s63-88.5,91.5-133S349.9,46,351.6,45s20-6.2,33-10s33.8-8,52.8-11s28.3,1.2,29.4,4.1
		c1.9,4.8-11.7,21.1-23.9,34.9s-80,72-125.3,115.2c-44.6,42.4-72,75.2-85.3,109.5c-9.8,35-0.5,52.1,3,56.8s13.4,9.2,28.2,10.5
		c14.8,1.2,36.5-1.5,48.5-0.2s26,7.5,40.2,12.8s24.8,11,25.2,20.2s-9.8,13.2-25.5,21.8s-62,30-81.7,36.7
		c-29.3,10-73.4,19.7-98.7,22.9c-22.7,2.9-50.6,2.5-60.9,1.7c-24.7-1.9-32.5-2-52-4s-23-7.8-27-20s3.3-25,9.5-31.2
		s20-14.5,20.8-16.5s-2.8-8.7-4.6-10.7s-8.3,0.4-21.4,5.7c-13.2,5.4-28.3,20.2-34.8,48.8s16.8,38.2,28.2,43.5s68,9,92.8,9.2
		s47.7-4.2,114.2-19.5s136.3-54,149.6-61.8s19.7-22.1,19.7-29.1S399,359.3,374.5,349.5z"/>
	<path class="st0" d="M478.7,438.9c-1.1-2,0.1-2.9-1.8-5.3c-4.3-5.3-18.1,15.4-23.1,14.4s4.7-37.3,23-76.7
		c18.3-39.3,44.3-82.7,60.3-110.3s50-81,67.3-109.7c17.3-28.7,38.7-62.3,45-74.7c6.3-12.3,18.3-31,17-46
		c-1.3-15-15.3-14.3-22.7-10.7s-3.7,11.7-5,20s-16.3,36.3-26,52.7c-9.7,16.3-35.3,57.3-47.7,79.3c-12.3,22-45.7,76.7-66.7,111.3
		c-21,34.7-33.6,62-53,101.7c-24.1,49.3-19.3,92.7-18.7,104.7s12.7,5.7,22,3.7s12-15.7,17.7-24.7c5.7-9,15.5-22.5,16.2-24.4
		S479.8,440.9,478.7,438.9z"/>
	<path class="st0" d="M1297.6,418.7c23-3,21.8-2.5,33-5.2s18-6.5,37.8-12.5s21.2-5.2,23.5-12s1-8-7.5-8.5s-28,3.5-39.5,6.2
		s-26.2,9-36.8,9.2s-39.8,3.2-51,5s-19,2.9-39,3.5c-20,0.6-44.5,1.2-68.5,2.8s-31,4.5-58.2-1.8s-64.2-19.2-62.8-21.8
		s32.5-13,50.8-26.5s36.2-32.8,34-45.8s-9-21.2-27.2-17.8s-45.2,17.8-59.5,28.5s-24,17.8-24.8,17s9.8-25,16-36.2s35.2-69,53.2-94.5
		s22-32.5,25.2-34s4.8-6.5,4-7.8s-3.8-9-0.8-13.8s9.8-17.2,11.5-21.5c1.8-4.3,0.5-10-3.8-12.5s-10-4-19,10.3s-40.2,66.8-53.5,80
		s-21,19.2-26.2,27.2s-15,24.8-24,36.2s-48.5,52-66.5,66.8s-61,51-88.2,66.2s-38.2,23.2-57.8,23.5s-44-2.2-44-13.8
		s4.5-31.5,21.5-46.5s30-20.2,43.5-25.2s15-5.8,11-14.2s-5-10.2-15.2-7.8s-31.2,8.5-46.2,19.8s-23.5,18.5-35,37s-27.8,42.5-39,38.8
		s-16.5-36-10.2-58.2s11.8-33.8,10-37s-11.5-21.8-23.8-21.7c-12.2,0.2-36.2,11.9-51.8,26.2s-46,47.8-56.2,64.8s-16,39-9,50.1
		c5.1,8.1,22.2,14,38.8,2.6c16.7-11.3,37-34,42.3-41s17.9-24.3,19.3-23c2.4,2.1,0.9,21.9,7.8,36.9c7.5,16.1,18.5,22.8,36.6,21.1
		c18.7-1.7,25.7-11.7,27.7-11.7s4.3,10.7,19.7,15.7s48,13.1,68.3,8.2c20.3-4.9,71-31.6,105.3-57.6c34.3-26,89.7-79.4,91.4-78.2
		s-76,160.5-70,166.5s22-1,25.2-5.5s32-72.5,39-75s20.2,0.2,54.5,12.8s60.8,17.2,81.8,17.5s42.8-3.8,75.5-4.2s37.5,1,62.2-1.8
		S1274.6,421.7,1297.6,418.7z M622.3,343.3c1.4,4.4-0.9,6.4-5.9,12.4s-39.6,49.9-52.2,63.2c-10.1,10.8-10.1,6.8-9.3,0.8
		c1.7-12.7,8-28.2,19.8-41.2s48.8-51.8,52-48.8S620.9,339,622.3,343.3z M1008.8,362.8c11.7-10.2,19.1-16.4,29.3-22.8
		c17.4-10.9,42.7-26.3,44.2-22.7c1.5,3.7-3.7,12.8-18.8,22.7c-15.2,9.8-40.2,22.5-48.2,25.8C1007.3,369.1,997.1,372.9,1008.8,362.8z
		"/>
	<path class="st0" d="M1465.6,460.9c8.1-6.1,21.2-21,19.1-27.2s-31.9,11.9-37.3,12.9c-5.4,1,16.7-47.3,39-103.3
		c22.3-56,29.3-68.5,48.8-106.8s48.1-99.2,52.6-110.3s3.8-10.5-1-17.2s-7.2-6.1-12-2.2s-4.5,8-5.4,11.5s-14,27.4-28.7,56.8
		s-53.3,103.3-68,136s-48.1,134.1-60,160C1383.2,535.1,1457.5,467.1,1465.6,460.9z"/>
	<path class="st0" d="M2232.1,295.6c23.3-33.3,60.7-79.3,61.7-86c1-6.7-5-14-18.3-15c-13.3-1-27.3,23.7-39.7,39.7
		c-12.3,16-33.7,47.7-97,113c-63.3,65.3-80.3,70.7-106,85.7c-25.7,15-41,16.7-57.3,18.3c-16.3,1.7-15.3-3.7-17-7.7
		c-1.7-4,0.7-5.7,6.3-7.3c5.7-1.7,10.7-4.7,20.7-14.3s9.3-22.7,2.7-37s-23-11.3-40-5.3s-20.7,36.7-20.7,36.7s-16.7-3-23.7-5.3
		s-6-9-6.3-12c-0.3-3-12.7-2.3-22.7-3.3s-17.3-14.7-24.3-27c-7-12.3-9.3-16.7-23-12.7c-13.7,4-9,12.3-5.7,21.3s5,21.7,2.3,38
		c-2.7,16.3-26.3,33.7-30,33.7c-3.7,0,0.7-20.3,5.7-43.7c5-23.3,23-58,30.7-72.7c7.7-14.7,36.7-52,50.7-72.7s10.3-26.3,4.7-32.7
		c-5.7-6.3-15.7-3.7-25.7,8c-10,11.7-57.1,68.8-81.5,105s-45.9,68.8-56.9,79.5s-33,17.8-48.6,16s-9.9-22.4-5-36.8s7.9-31.6,8-37
		s-9.8-11.9-14.5-13.1s-9.9,7.4-13.4,8.9s-13.5-1.9-32.8,4.9s-39.9,32.1-51.1,49.6c-12.1,18.9-14.8,29.3-18.1,38.6s1,14.3,11.2,16.3
		c10.2,2,34.2-11.8,43.8-20.2c9.7-8.3,22.2-21.8,26.7-28.2s5-0.8,5.7,5.2c0.7,6,3.2,13.7,9.2,22.2s38.2,12.2,46.7,11.8
		c8.5-0.3,22-4,41-16.7c24.3-16.2,35-35,37.2-35.3c2.2-0.3,1,3.7-2.2,19.2c-4,19.7,4.2,32,5.8,35.8c1.7,3.8,17.5,17.8,39.7,8.2
		c22.2-9.7,35.5-35.7,38.2-41c2.7-5.3,2.8-15,3.8-16.2c1-1.2,4.3-0.8,6.3-0.2s9.8,8.5,16.5,14.2c6.7,5.7,26.9,9.1,36.3,11
		s15.3,1.1,15.3,1.1s-0.2,1.1,1.8,10.8s15.3,19.7,33,25s49.7-4.3,72.3-13c22.7-8.7,75.7-45.3,88.7-57.3s30.7-36.7,27-31
		c-3.7,5.7-29.7,55.3-38.7,80c-9,24.7-2,29,4,33.7c6,4.7,11.7,6.7,31,2.7c19.3-4,71.3-22.7,93.7-28s31.7-10,35-13.3
		c3.3-3.3,8.3-6,8.7-9.3c0.3-3.3-21-0.7-65.3,6.3c-44.3,7-73,21.3-77.3,17.7c-4.3-3.7,30-61,38.7-80
		C2188.5,363.3,2208.8,328.9,2232.1,295.6z M1600.5,413.9c-9,9.7-13.7,16-15,14c-1.3-2,3.5-4.7,5.4-7.3c1.9-2.7,5.1-6.8,11.6-14.7
		c6-7.4,16.3-19.3,17.7-16.3C1621.5,392.6,1609.5,404.3,1600.5,413.9z"/>
	<path class="st0" d="M857.4,787.4c-4.8-4.5-13.8-5-26.5-5s-20,8.2-25.8,12s-12.4,1.5-15.8,6.2c-3.5,5-13.3,14.6-19,18.2
		c-6,3.9-17.8,19-24.5,22.8s-1-7.8,3-23.5s-2.5-21.2-7.5-23.2s-12.5,4-16.8,13s-8.8,14-16.8,22.2s-17.8,16-19.8,16s-2-4.2-1.5-17
		s0.5-20.8-5-33s-12.8-11-25.2-8.5s-27,20.5-32,31.2s-7.2,9-13.5,6.2s-2.8-27.8-2.5-36s0.8-10.5-6.2-15.8s-10.2-2.2-19.2,7.5
		s-6.5,5.8,6.8-22.2s36.8-63.2,40.5-69.2s6.8-8.8,4.5-11.2s-1-3.5-6-8.2s-18.2,15-29.8,32.8s-25.7,46-35.8,65.6
		c-13.6,26.1-20.4,46.3-23.7,54c-3.5,8.2-14.2,24.4-12.5,32.4s11.2,3.2,16.8,0.5s8.8-6.8,14.8-14.5s10-13.2,15.5-21.2
		s4.5,0.5,5.8,6.2s5.8,12.5,14.5,17.8s15.8-3.2,18.8-3s1,9,8,15.8c4.9,4.7,11.5,4.5,19.8,2.2s13.8-10,17.5-9s7.5,16.5,14,21.5
		s15.8-0.8,22-4s13.2-7.8,17-9.5s3.8,1.5,5.5,6s9.8,8.5,13.8,9.8s8-1.8,12.2-3.8s5.8-1.2,10.8-3.5s8.5-9.2,11.2-12.2s4-0.8,3.8,2.2
		s0.5,7.8,5.2,10.2s9.2-1.2,12.2-2s7-1.2,9.8-4.2s7.2-17,10-25s6.5-14.2,12.2-21.5s9.5-8.2,14.5-8.8s9,0.5,15,1.8s6.2-2.2,8.2-3.5
		s7.2,0,9-1.8S862.1,791.9,857.4,787.4z M653.5,823.9c-3.7,4.7-9.1,9.3-11.1,11.6c-2,2.3-3,0.7-1.3-3c1.7-3.7,2.4-6.2,4.8-10.3
		c3.8-6.5,10.5-14.2,12.5-12.2S657.1,819.3,653.5,823.9z"/>
	<path class="st0" d="M768.6,761.2c10.5-4.4,7-8.2,1.8-15.8s-11.6-2.8-16.2,0c-4.9,2.9-7,8.8-4,14S758.1,765.6,768.6,761.2z"/>
	<path class="st0" d="M1104.1,784.4c-6-5.5-23.2-6-25.8-6.2s-3.8-1.5-3.2-5.2s0.2-7.3-6.8-14.2c-6.5-6.5-18.2-5.2-29.5,2.8
		s-13.8,16-12.5,25.5s1.5,10.8-2.8,17s-13.8,16-16.5,26.2s-4.5,28-3.8,37.5s18,11,24,10.5s16.5-10.8,21-16s0-14.5-1.2-18.5
		s-0.4-8.3-1.1-13.8s-3.9-9.2-2.9-12.2s5.6-3.6,17.6-9c7.9-3.6,13.6-7.1,28.4-4.6c7.8,1.3,10.4,6.5,16.1,6.1
		c3.5-0.2,4.7-4.4,6.5-9.8C1113,796.4,1110.1,789.9,1104.1,784.4z"/>
	<path class="st0" d="M1509.8,697.4c-7.9,1.2-8.3,8.6-9.3,12.9c-1,4.3-1.7,9,3.7,12.3c5.3,3.3,12.7-3,16.3-6.3
		c3.7-3.3,5.1-9.6,1.3-15.1C1520.2,698.9,1517.5,696.1,1509.8,697.4z"/>
	<path class="st0" d="M1399.1,698.9c29.8-12.2,38-11.8,42.2-14.5s5.8-5,3-10.5s-8.5-7-15.2-5.8s-20,3.2-38.5,15.5s-28.2,15.8-44,34
		s-31,41.2-44.5,63s-23.2,38.5-27.8,48.2s-6,5.8-6,2.2s-3.2-40.8,0.8-64.8s10.8-44.5,7.5-54.5s-10.2-13.8-14.8-13
		s-9.2,7.7-11.2,42.5c-1.9,33-4,66.5-3,78s6.2,41.2-0.3,56.8s-14.5,31.5-8.7,33.5s15,1.8,24.8-16.2s50.2-103.8,68.5-127.8
		S1369.4,711.2,1399.1,698.9z"/>
	<path class="st0" d="M1357.4,812.4c-5.1-7-11.2-4.5-14.2-2.8s-9.5,6.8-9.5,10.2s-2.9,14.6-5.2,24.5c-2.4,9.9-2.5,15.5-4,19.8
		s-5.8,4-4.8,9.5s7.8,12.5,12.2,10.2s12.2-6.8,14.5-13s3.3-12.4,7-22C1359,834.4,1364.4,822.2,1357.4,812.4z"/>
	<path class="st0" d="M1448.8,866c-12.7,5.7-11-1.4-11-23c0-14-2.2-15-9.7-23.5s-29.5,13-34,13s-0.5-7-10-8.5s-16.3,18.6-21,32.5
		c-2.6,7.7-6.7,21.8,0,27.9c6.7,6.1,17.7-6.4,26-15.8c8.3-9.3,16-19.7,19.3-19c3.3,0.7,2.7,19.3,3.7,28.7c1,9.3,6,11.7,16.3,13.3
		c10.3,1.7,32.3-11,37-15.3c4.7-4.3,4.7-7,5.7-17S1455.9,862.8,1448.8,866z"/>
	<path class="st0" d="M1849.5,790.9c-42.7,4.3-127.7,3.3-168.3,1.3c-40.7-2-135.3-1.3-143.3-1.3s-3-3.7,1.7-17.3
		c4.7-13.7,22.1-32.7,29.5-43c7.3-10.3,4.3-16.7,0-20.3c-10.8-8.9-30,20.6-37.2,31.4s-22.8,49.2-25.8,51.2s-17.8,0.8-31.5,1.5
		s-31.5,5.2-33,14.5s10.8,14,23.8,12.5s30-4,31.5-2.8s-3.2,18.5-6.8,32.8s-0.8,36.2,1.8,46.5s15.8,9.5,20.3,7.2s5.9-2.2,10.9,0
		s11.8-1.2,17.2-5.5s18-16.2,21-19.5s4.5-0.2,7,3s12.5,13,18.2,16.8s10.2-1.5,12.8-2.8s5-0.8,6.8-0.2s4.2,6,9.8,8.5s19.2-5.8,22-5.2
		s-13.5,31.5-19.5,41.8s-33.5,57.2-35.5,63.2s2.8,11.8,7.8,12s7.5-4.4,9.5-5.1s1.9-0.5,6.9-2.8s26.3-33,54.7-60
		c28.3-27,58-42,62.3-42.7c4.3-0.7,23.7,7,50,6.7s67.3-10.3,81.3-15.7c14-5.3,22.7-15.3,26.3-17.3c3.7-2,9.7-4.3,2.7-13.7
		c-11.3-14.7-26.3,3.7-30.7,7.7c-4.3,4-15,9.7-38.7,14.3c-23.7,4.7-45,1-49.7,0.3c-4.7-0.7-9.7,1-5-7.3c4.7-8.3,23-24.7,24.7-35.5
		s-1.3-20.6-14.3-27.1s-36.7,19.3-48,32c-11.3,12.7-7.2,35.4-7.7,38c-0.4,2.6-7,4.3-31.3,18.3c-24.3,14-32,27.3-32,27.3
		s23.7-45.8,29.7-58.3c6-12.4,19-31.6,12.5-45.2c-6.5-13.7-39.7,1.8-55.7,10.2s-27,24.2-36.8,30.7c-9.8,6.5-6.5-18.6-18.3-29.7
		c-8.5-8-13.7-8.3-30.7-1s-27,22-35.3,32.7c-8.3,10.7-3.7-17-2.3-27.9c1.3-10.9,6.7-28.5,12.3-31.8c5.7-3.3,55.7-4.3,90-4.7
		c34.3-0.3,119.7,3,145.7,3s79-3,84.3-3s2.7,4.7,10,4.7c4.1,0,9-1,14.3-1.7c5.3-0.7,14.7-5,19.3-8c4.7-3,1.7-7,0-10.6
		C1888.8,790.4,1892.1,786.6,1849.5,790.9z M1638,869.9c7-7.6,14.1-13.7,16-12.7c1.8,1-0.9,3.8-3.7,6.7c-2.8,2.8-7.5,8.2-9.5,9.2
		S1632.3,876.1,1638,869.9z"/>
	<path class="st0" d="M1936.1,860.6c-10-0.7-9,2.8-10.1,3.8s-3.8-0.1-5.3,1.9s-1.6,3.6-1.7,6.1s2,3.8,2.3,5.9s2.2,3.6,6.9,4.1
		s5.3-3.1,9.9-2.1s6.1-0.6,7.2-1.5s3.8-2.1,1.8-6.8C1945.1,867.3,1940.1,860.9,1936.1,860.6z"/>
</g>
</svg>
